<mxfile host="app.diagrams.net" modified="2023-09-28T10:39:01.465Z" agent="Mozilla/5.0 (Windows NT 10.0; Win64; x64; rv:109.0) Gecko/20100101 Firefox/117.0" etag="ipo-Li5XZAkrzLqsRlDI" version="21.2.3" type="device">
  <diagram name="Страница 1" id="cUjjUj1EhB7zKsQsvFTo">
    <mxGraphModel dx="1114" dy="602" grid="1" gridSize="10" guides="1" tooltips="1" connect="1" arrows="1" fold="1" page="1" pageScale="1" pageWidth="827" pageHeight="1169" math="0" shadow="0">
      <root>
        <mxCell id="0" />
        <mxCell id="1" parent="0" />
        <mxCell id="s-OvUWTf_hIzMa2GPE4v-54" value="Login information" style="swimlane;whiteSpace=wrap;html=1;" vertex="1" parent="1">
          <mxGeometry x="130" y="160" width="200" height="200" as="geometry" />
        </mxCell>
        <mxCell id="s-OvUWTf_hIzMa2GPE4v-55" value="-username:string" style="text;html=1;align=center;verticalAlign=middle;resizable=0;points=[];autosize=1;strokeColor=none;fillColor=none;" vertex="1" parent="s-OvUWTf_hIzMa2GPE4v-54">
          <mxGeometry x="10" y="30" width="120" height="30" as="geometry" />
        </mxCell>
        <mxCell id="s-OvUWTf_hIzMa2GPE4v-56" value="-password:string" style="text;html=1;align=center;verticalAlign=middle;resizable=0;points=[];autosize=1;strokeColor=none;fillColor=none;" vertex="1" parent="s-OvUWTf_hIzMa2GPE4v-54">
          <mxGeometry x="10" y="60" width="120" height="30" as="geometry" />
        </mxCell>
        <mxCell id="s-OvUWTf_hIzMa2GPE4v-58" value="+validate()" style="text;html=1;align=center;verticalAlign=middle;resizable=0;points=[];autosize=1;strokeColor=none;fillColor=none;" vertex="1" parent="s-OvUWTf_hIzMa2GPE4v-54">
          <mxGeometry x="10" y="150" width="80" height="30" as="geometry" />
        </mxCell>
        <mxCell id="s-OvUWTf_hIzMa2GPE4v-57" value="" style="endArrow=none;html=1;rounded=0;" edge="1" parent="s-OvUWTf_hIzMa2GPE4v-54">
          <mxGeometry width="50" height="50" relative="1" as="geometry">
            <mxPoint y="140" as="sourcePoint" />
            <mxPoint x="200" y="140" as="targetPoint" />
          </mxGeometry>
        </mxCell>
        <mxCell id="s-OvUWTf_hIzMa2GPE4v-59" value="User information" style="swimlane;whiteSpace=wrap;html=1;" vertex="1" parent="1">
          <mxGeometry x="410" y="160" width="200" height="200" as="geometry" />
        </mxCell>
        <mxCell id="s-OvUWTf_hIzMa2GPE4v-60" value="-username:string" style="text;html=1;align=center;verticalAlign=middle;resizable=0;points=[];autosize=1;strokeColor=none;fillColor=none;" vertex="1" parent="s-OvUWTf_hIzMa2GPE4v-59">
          <mxGeometry x="10" y="30" width="120" height="30" as="geometry" />
        </mxCell>
        <mxCell id="s-OvUWTf_hIzMa2GPE4v-61" value="-password:string" style="text;html=1;align=center;verticalAlign=middle;resizable=0;points=[];autosize=1;strokeColor=none;fillColor=none;" vertex="1" parent="s-OvUWTf_hIzMa2GPE4v-59">
          <mxGeometry x="10" y="60" width="120" height="30" as="geometry" />
        </mxCell>
        <mxCell id="s-OvUWTf_hIzMa2GPE4v-62" value="+access()" style="text;html=1;align=center;verticalAlign=middle;resizable=0;points=[];autosize=1;strokeColor=none;fillColor=none;" vertex="1" parent="s-OvUWTf_hIzMa2GPE4v-59">
          <mxGeometry x="10" y="150" width="80" height="30" as="geometry" />
        </mxCell>
        <mxCell id="s-OvUWTf_hIzMa2GPE4v-63" value="" style="endArrow=none;html=1;rounded=0;" edge="1" parent="s-OvUWTf_hIzMa2GPE4v-59">
          <mxGeometry width="50" height="50" relative="1" as="geometry">
            <mxPoint y="140" as="sourcePoint" />
            <mxPoint x="200" y="140" as="targetPoint" />
          </mxGeometry>
        </mxCell>
        <mxCell id="s-OvUWTf_hIzMa2GPE4v-64" value="-userID:id" style="text;html=1;align=center;verticalAlign=middle;resizable=0;points=[];autosize=1;strokeColor=none;fillColor=none;" vertex="1" parent="s-OvUWTf_hIzMa2GPE4v-59">
          <mxGeometry x="10" y="90" width="80" height="30" as="geometry" />
        </mxCell>
        <mxCell id="s-OvUWTf_hIzMa2GPE4v-65" value="" style="endArrow=none;html=1;rounded=0;exitX=1;exitY=0.5;exitDx=0;exitDy=0;entryX=0;entryY=0.5;entryDx=0;entryDy=0;" edge="1" parent="1" source="s-OvUWTf_hIzMa2GPE4v-54" target="s-OvUWTf_hIzMa2GPE4v-59">
          <mxGeometry width="50" height="50" relative="1" as="geometry">
            <mxPoint x="390" y="300" as="sourcePoint" />
            <mxPoint x="440" y="250" as="targetPoint" />
          </mxGeometry>
        </mxCell>
      </root>
    </mxGraphModel>
  </diagram>
</mxfile>
